<?xml version="1.0" encoding="UTF-8"?>
<svg width="256" height="256" version="1.1" viewBox="0 0 234.06 819.2" xmlns="http://www.w3.org/2000/svg">
 <g transform="matrix(2.7843 0 0 2.7843 -272.45 298.52)">
  <path d="m0 0h279.77v80h-279.77z" stroke="#00f" stroke-width="7.5591"/>
  <path d="m267.21 57.423c-0.545 0.154-1.007 0.238-1.468 0.238-1.637 0-2.406-0.7-2.406-2.714v-15.207c0-7.987-6.365-11.876-13.891-11.876-5.75 0-8.84 0.7-14.982 3.175l-1.37 8.058 7.987 0.853 1.133-3.945c1.637-0.853 3.26-1.007 5.357-1.007 5.666 0 5.75 4.267 5.75 7.834v1.16c-1.79-0.237-3.805-0.307-5.75-0.307-7.987 0-16.296 2.014-16.296 10.631 0 7.288 5.735 10.016 10.785 10.016 5.665 0 9.232-3.413 11.247-6.98 0.461 4.266 3.021 6.98 7.68 6.98 2.168 0 4.42-0.615 6.28-1.637l-0.056-5.273zm-21.486-0.224c-3.022 0-4.113-1.79-4.113-4.043 0-3.805 3.106-4.812 6.673-4.812 1.623 0 3.413 0.238 5.05 0.462-0.238 5.833-4.043 8.393-7.61 8.393zm-13.443-47.03-15.136 53.395h-9.861l15.135-53.394h9.862zm-20.325 0-15.136 53.395h-9.848l15.136-53.394h9.848zm-42.022 18.396h10.478v12.561h-10.478zm0 22.423h10.478v12.576h-10.478zm-15.247-0.462 7.917 0.77-2.168 12.268h-30.579l-1.007-5.274 19.248-22.116h-10.939l-1.552 5.428-7.219-0.784 1.245-12.267h30.733l0.784 5.273-19.417 22.13h11.331zm-50.149-22.66c-12.576 0-18.786 8.462-18.786 18.702 0 11.177 7.455 17.765 18.24 17.765 11.177 0 19.249-7.064 19.249-18.24 0-9.779-6.141-18.228-18.703-18.228zm-0.238 28.787c-5.427 0-8.225-4.658-8.225-10.715 0-6.602 3.175-10.393 8.31-10.393 4.727 0 8.532 3.175 8.532 10.24 0 6.672-3.413 10.868-8.617 10.868zm-27.557-0.699h4.658v7.61h-14.674v-19.71c0-6.057-2.014-8.38-5.973-8.38-4.812 0-6.756 3.414-6.756 8.31v12.17h4.658v7.61h-14.66v-19.71c0-6.057-2.015-8.38-5.973-8.38-4.812 0-6.757 3.414-6.757 8.31v12.17h6.673v7.61h-21.333v-7.61h4.659v-19.794h-4.659v-7.61h14.66v5.274c2.099-3.72 5.75-5.973 10.632-5.973 5.05 0 9.694 2.406 11.414 7.526 1.945-4.658 5.903-7.526 11.415-7.526 6.28 0 12.03 3.805 12.03 12.1v16.003z" fill="#fff"/>
 </g>
</svg>
