<?xml version="1.0" encoding="UTF-8"?>
<svg width="200px" height="200px" version="1.1" viewBox="0 0 100 100" xmlns="http://www.w3.org/2000/svg">
 <path d="m94.958 17.695c-0.015-0.225-0.026-0.359-0.029-0.388-0.345-3.962-3.475-7.027-7.443-7.289-0.177-0.012-0.354-0.018-0.529-0.018-2.907 0-5.478 1.526-6.882 3.91-0.053 1e-3 -0.108 1e-3 -0.165 1e-3 -1.317 0-2.981-0.17-4.59-0.335-1.939-0.198-3.77-0.386-5.621-0.386-2.52 5e-3 -5.081 0.172-7.624 0.494-3.8 0.481-7.51 1.607-11.028 3.348-0.023 0.011-0.062 0.021-0.088 0.021s-0.064-9e-3 -0.087-0.02c-3.518-1.74-7.227-2.867-11.027-3.348-2.544-0.322-5.09-0.488-7.568-0.494h-2e-3c-1.907 0-3.738 0.188-5.676 0.386-1.61 0.165-3.274 0.335-4.59 0.335-0.058 0-0.115 0-0.169-1e-3 -1.408-2.389-3.977-3.91-6.88-3.91-0.019 0-0.074 0-0.093 1e-3 -3.764 0.044-7.025 2.755-7.756 6.447-0.192 0.969-4.64 23.95 0.431 42.157 2.372 8.517 9.266 13.612 17.417 17.394l7.459 11.514c2.471 2.851 6.052 4.486 9.824 4.486h18.314c3.971 0 7.671-1.778 10.151-4.879l7.777-9.721c7.273-3.672 12.842-10.062 15.378-17.7 5.681-17.107 1.7-38.943 1.096-42.005z" opacity=".35"/>
 <path d="m92.958 15.695c-0.015-0.225-0.026-0.359-0.029-0.388-0.345-3.962-3.475-7.027-7.443-7.289-0.177-0.012-0.354-0.018-0.529-0.018-2.907 0-5.478 1.526-6.882 3.91-0.053 1e-3 -0.108 1e-3 -0.165 1e-3 -1.317 0-2.981-0.17-4.59-0.335-1.939-0.198-3.77-0.386-5.621-0.386-2.52 5e-3 -5.081 0.172-7.624 0.494-3.8 0.481-7.51 1.607-11.028 3.348-0.023 0.011-0.062 0.021-0.088 0.021s-0.064-9e-3 -0.087-0.02c-3.518-1.74-7.227-2.867-11.027-3.348-2.544-0.322-5.09-0.488-7.568-0.494h-2e-3c-1.907 0-3.738 0.188-5.676 0.386-1.61 0.165-3.274 0.335-4.59 0.335-0.058 0-0.115 0-0.169-1e-3 -1.409-2.39-3.977-3.911-6.881-3.911-0.019 0-0.074 0-0.093 1e-3 -3.764 0.044-7.025 2.755-7.756 6.447-0.192 0.969-4.64 23.95 0.431 42.157 2.372 8.519 8.583 15.733 16.734 19.514l8.142 9.395c2.472 2.851 6.053 4.486 9.825 4.486h18.314c3.971 0 7.671-1.778 10.151-4.879l7.777-9.721c7.273-3.672 12.842-10.062 15.378-17.7 5.681-17.107 1.7-38.943 1.096-42.005z" fill="#f2f2f2"/>
 <g fill="#40396e">
  <path d="m84.957 13c-1.396 0-2.62 0.969-2.927 2.349-0.121 0.546-0.347 1.561-4.12 1.561-1.572 0-3.365-0.184-5.1-0.361-1.808-0.185-3.517-0.36-5.111-0.36-2.319 5e-3 -4.657 0.158-6.996 0.454-3.246 0.411-6.422 1.376-9.439 2.869-0.713 0.353-1.51 0.539-2.305 0.539s-1.592-0.186-2.305-0.539c-3.017-1.493-6.192-2.458-9.437-2.869-2.34-0.296-4.678-0.449-6.951-0.454-1.642 0-3.35 0.175-5.159 0.36-1.734 0.178-3.528 0.361-5.099 0.361-3.773 0-3.999-1.016-4.12-1.561-0.306-1.374-1.524-2.349-2.929-2.349h-0.035c-1.419 0.016-2.633 1.025-2.908 2.417-0.182 0.922-4.412 22.773 0.342 39.846 2.084 7.484 7.648 13.688 14.962 16.734l8.877 10.242c1.52 1.755 3.724 2.761 6.045 2.761h18.314c2.444 0 4.721-1.094 6.247-3.002l8.488-10.61c6.561-2.991 11.596-8.547 13.827-15.263 5.572-16.781 1.074-38.809 0.879-39.738-3e-3 -0.015-6e-3 -0.029-0.01-0.044-0.018-0.357-0.036-0.569-0.039-0.603-0.128-1.475-1.314-2.636-2.791-2.733-0.067-5e-3 -0.134-7e-3 -0.2-7e-3z"/>
  <path d="m48.959 38-33-12-3-10s-4.328 21.877 0.289 38.459c1.992 7.152 7.475 12.809 14.482 15.261l12.229 4.28-9.75-17.25z"/>
  <path d="m85.06 17-3 10-33 12 18.674 18.674-9.793 17.326 13.995-6.292c5.805-2.61 10.328-7.488 12.333-13.528 5.382-16.207 0.791-38.18 0.791-38.18z"/>
 </g>
 <path d="m58.556 82h-18.314c-1.45 0-2.829-0.63-3.778-1.725l-9.771-11.274c-1.105-1.275-1.622-2.955-1.425-4.631l3.691-31.37h40l3.707 31.509c0.188 1.594-0.271 3.196-1.274 4.449l-8.932 11.166c-0.949 1.186-2.385 1.876-3.904 1.876z" fill="#2785bd"/>
 <path d="m84.959 16c-1.375 6.188-11.258 3.176-17.3 3.189-2.201 5e-3 -4.397 0.154-6.579 0.43-2.953 0.374-5.818 1.262-8.486 2.582-2.291 1.134-4.98 1.134-7.271 0-2.667-1.32-5.532-2.208-8.484-2.582-2.182-0.276-4.379-0.426-6.58-0.43-6.042-0.013-15.925 2.998-17.3-3.189 0 0-2 22 15 25 0 0 0.497-4.332 7.604-4.751 6.396 0 12.697 3.401 13.396 3.751 0.7-0.35 7-3.751 13.396-3.751 7.107 0.419 7.604 4.751 7.604 4.751 17-3 15-25 15-25z" fill="#2b59a1"/>
 <path d="m20.3 53.714c0 5.143 1.819 10.286 5.744 10.286h1.915v-15c-7-3-7.858-9-7.858-9-3.925 0 0.199 8.571 0.199 13.714z" fill="#2785bd"/>
 <path d="m77.817 40s-0.858 6-7.858 9v15h1.915c3.925 0 5.744-5.143 5.744-10.286s4.124-13.714 0.199-13.714z" fill="#2785bd"/>
 <g fill="#f2f2f2">
  <path d="m63.706 70.021c-0.377-0.063-0.794-0.122-1.243-0.177l-2.504-5.844c-0.345 2.763-1.171 4.436-2.099 5.464-5.122-0.279-11.679-0.279-16.801 0-0.929-1.028-1.754-2.701-2.099-5.464l-2.504 5.844c-0.449 0.055-0.866 0.114-1.243 0.177-0.816 0.136-1.369 0.909-1.232 1.727 0.136 0.816 0.904 1.365 1.727 1.232 5.783-0.963 21.723-0.963 27.506 0 0.082 0.013 0.165 0.02 0.247 0.02 0.72 0 1.355-0.52 1.478-1.253 0.136-0.817-0.417-1.591-1.233-1.726z"/>
  <path d="m42.959 56h-8.909c-3.795 0-5.091-4-5.091-4s1.273-2 6.364-2c3.795 0 7.636 6 7.636 6z"/>
  <path d="m62.595 50c5.091 0 6.364 2 6.364 2s-1.296 4-5.091 4h-8.909s3.841-6 7.636-6z"/>
 </g>
 <circle cx="35.959" cy="53" r="3" fill="#70bfff"/>
 <circle cx="61.959" cy="53" r="3" fill="#70bfff"/>
 <path d="m58.451 47.59-5.308 2.646c-1.517 0.756-2.134 2.599-1.377 4.116 0.891 1.787 3.224 2.261 4.741 0.963l3.28-2.804c3.172-3.511 9.172-3.511 9.172-3.511-4.283-4.561-7.414-3.062-10.508-1.41z" fill="#40396e"/>
 <path d="m39.951 47.59 5.308 2.646c1.517 0.756 2.134 2.599 1.377 4.116-0.891 1.787-3.224 2.261-4.741 0.963l-3.28-2.804c-3.172-3.511-9.656-3.511-9.656-3.511 4.283-4.561 7.898-3.062 10.992-1.41z" fill="#40396e"/>
</svg>
